<svg width="100" height="160" viewBox="0 0 100 160" fill="none" xmlns="http://www.w3.org/2000/svg">
<g clip-path="url(#clip0_272_327)">
<g clip-path="url(#clip1_272_327)">
<rect width="100" height="160" fill="#EDEFED"/>
<path d="M26 102.5V57.5C26 55.5109 26.7902 53.6032 28.1967 52.1967C29.6032 50.7902 31.5109 50 33.5 50H71C71.7956 50 72.5587 50.3161 73.1213 50.8787C73.6839 51.4413 74 52.2044 74 53V107C74 107.796 73.6839 108.559 73.1213 109.121C72.5587 109.684 71.7956 110 71 110H33.5C31.5109 110 29.6032 109.21 28.1967 107.803C26.7902 106.397 26 104.489 26 102.5ZM26 102.5C26 100.511 26.7902 98.6032 28.1967 97.1967C29.6032 95.7902 31.5109 95 33.5 95H74" stroke="#010B08" stroke-width="6" stroke-linecap="round" stroke-linejoin="round"/>
</g>
</g>
<defs>
<clipPath id="clip0_272_327">
<rect width="100" height="160" rx="4" fill="white"/>
</clipPath>
<clipPath id="clip1_272_327">
<rect width="100" height="160" fill="white"/>
</clipPath>
</defs>
</svg>
